<svg xmlns="http://www.w3.org/2000/svg" viewBox="0 0 125.53 123.94"><path d="M115.53,0a10,10,0,0,0-10,10V30.92c0,6.81-2.16,22.65-22.16,22.65H32L61.54,19.76A10,10,0,1,0,46.48,6.6L2.46,57l-.18.23c-.12.15-.25.3-.37.46L1.68,58c-.11.16-.21.32-.31.48l-.21.39-.24.47a4.68,4.68,0,0,0-.19.45c-.06.14-.12.29-.17.43a4.74,4.74,0,0,0-.15.5,3.31,3.31,0,0,0-.12.42c0,.17-.08.35-.11.52s-.06.29-.08.43L0,62.62l0,.46c0,.16,0,.32,0,.48s0,.32,0,.49l0,.45L.1,65c0,.15,0,.29.08.43s.07.35.11.52a3.31,3.31,0,0,0,.12.42,4.74,4.74,0,0,0,.15.5c0,.15.11.29.17.44s.12.3.19.45l.24.46.21.39a5.66,5.66,0,0,0,.31.48l.23.35.37.47.18.22,44,50.38a10,10,0,1,0,15.06-13.16L32,73.57H83.37c25.22,0,42.16-17.14,42.16-42.65V10A10,10,0,0,0,115.53,0Z"/></svg>