<svg xmlns="http://www.w3.org/2000/svg" viewBox="0 0 65.22 121.98"><path d="M60.83,0a4.12,4.12,0,0,0-3.61,4.15V47.72A11.66,11.66,0,0,1,45.56,59.38H40.81a4.2,4.2,0,0,1-4.2-4.2v-51A4.12,4.12,0,0,0,33,0a4,4,0,0,0-4.39,4V55.18a4.2,4.2,0,0,1-4.2,4.2H19.66A11.66,11.66,0,0,1,8,47.72V4.18A4.12,4.12,0,0,0,4.41,0,4,4,0,0,0,0,4V47.72A19.66,19.66,0,0,0,19.66,67.38h3.25a4.2,4.2,0,0,1,4.2,4.2v44.66a5.67,5.67,0,0,0,5,5.72,5.5,5.5,0,0,0,6-5.48V71.58a4.2,4.2,0,0,1,4.21-4.2h3.24A19.66,19.66,0,0,0,65.22,47.72V4A4,4,0,0,0,60.83,0Z"/></svg>