<svg xmlns="http://www.w3.org/2000/svg" width="1071" height="898" fill="none" viewBox="0 0 1071 898">
  <path fill="url(#a)" d="m162.316 344.156-99.8-133.5 155.3-116.2 99.9 133.6-155.4 116.1Z"/>
  <path fill="#252F39" d="m169.115 187.556-101.4 25.3c-3.8 1-7-3-5.2-6.4l41.1-80.1c1.7-3.4 4.9-5.9 8.6-6.8l101.4-25.4c3.8-1 7 3 5.2 6.4l-41.1 80.1c-1.8 3.5-4.9 6-8.6 6.9Z"/>
  <path fill="url(#b)" d="m100.316 766.156-99.8-133.5 155.3-116.2 99.9 133.6-155.4 116.1Z"/>
  <path fill="#252F39" d="m107.115 609.556-101.4 25.3c-3.8 1-7-3-5.2-6.4l41.1-80.1c1.7-3.4 4.9-5.9 8.6-6.8l101.4-25.4c3.8-1 7 3 5.2 6.4l-41.1 80.1c-1.8 3.5-4.9 6-8.6 6.9Z"/>
  <path fill="url(#c)" d="m435.316 250.156-99.8-133.5 155.3-116.2 99.9 133.6-155.4 116.1Z"/>
  <path fill="#252F39" d="m442.115 93.556-101.4 25.3c-3.8 1-7-3-5.2-6.4l41.1-80.1c1.7-3.4 4.9-5.9 8.6-6.8l101.4-25.4c3.8-1 7 3 5.2 6.4l-41.1 80.1c-1.8 3.5-4.9 6-8.6 6.9Z"/>
  <path fill="url(#d)" d="m417.3 562.156-99.8-133.5 155.3-116.2 99.9 133.6-155.4 116.1Z"/>
  <path fill="#252F39" d="m424.1 405.556-101.4 25.3c-3.8 1-7-3-5.2-6.4l41.1-80.1c1.7-3.4 4.9-5.9 8.6-6.8l101.4-25.4c3.8-1 7 3 5.2 6.4l-41.1 80.1c-1.8 3.5-4.9 6-8.6 6.9Z"/>
  <path fill="url(#e)" d="m625.3 389.156-99.8-133.5 155.3-116.2 99.9 133.6-155.4 116.1Z"/>
  <path fill="#252F39" d="m632.1 232.556-101.4 25.3c-3.8 1-7-3-5.2-6.4l41.1-80.1c1.7-3.4 4.9-5.9 8.6-6.8l101.4-25.4c3.8-1 7 3 5.2 6.4l-41.1 80.1c-1.8 3.5-4.9 6-8.6 6.9Z"/>
  <path fill="url(#f)" d="m602.316 682.212-99.8-133.5 155.3-116.2 99.9 133.6-155.4 116.1Z"/>
  <path fill="#252F39" d="m609.115 525.612-101.4 25.3c-3.8 1-7-3-5.2-6.4l41.1-80.1c1.7-3.4 4.9-5.9 8.6-6.8l101.4-25.4c3.8-1 7 3 5.2 6.4l-41.1 80.1c-1.8 3.5-4.9 6-8.6 6.9Z"/>
  <path fill="url(#g)" d="m356.316 870.156-99.8-133.5 155.3-116.2 99.9 133.6-155.4 116.1Z"/>
  <path fill="#252F39" d="m363.115 713.556-101.4 25.3c-3.8 1-7-3-5.2-6.4l41.1-80.1c1.7-3.4 4.9-5.9 8.6-6.8l101.4-25.4c3.8-1 7 3 5.2 6.4l-41.1 80.1c-1.8 3.5-4.9 6-8.6 6.9Z"/>
  <path fill="url(#h)" d="m915.316 332.212-99.8-133.5 155.3-116.2 99.904 133.6-155.404 116.1Z"/>
  <path fill="#252F39" d="m922.115 175.612-101.4 25.3c-3.8 1-7-3-5.2-6.4l41.1-80.1c1.7-3.4 4.9-5.9 8.6-6.8l101.4-25.4c3.8-1 7 3 5.2 6.4l-41.1 80.1c-1.8 3.5-4.9 6-8.6 6.9Z"/>
  <path fill="url(#i)" d="m846.316 897.212-99.8-133.5 155.3-116.2 99.904 133.6-155.404 116.1Z"/>
  <path fill="#252F39" d="m853.115 740.612-101.4 25.3c-3.8 1-7-3-5.2-6.4l41.1-80.1c1.7-3.4 4.9-5.9 8.6-6.8l101.4-25.4c3.8-1 7 3 5.2 6.4l-41.1 80.1c-1.8 3.5-4.9 6-8.6 6.9Z"/>
  <defs>
    <linearGradient id="a" x1="88.016" x2="232.516" y1="98.056" y2="278.056" gradientUnits="userSpaceOnUse">
      <stop offset="0" stop-color="#242E39"/>
      <stop offset="1" stop-color="#242E39" stop-opacity="0"/>
    </linearGradient>
    <linearGradient id="b" x1="26.016" x2="170.516" y1="520.056" y2="700.056" gradientUnits="userSpaceOnUse">
      <stop offset="0" stop-color="#242E39"/>
      <stop offset="1" stop-color="#242E39" stop-opacity="0"/>
    </linearGradient>
    <linearGradient id="c" x1="361.016" x2="505.516" y1="4.056" y2="184.056" gradientUnits="userSpaceOnUse">
      <stop offset="0" stop-color="#242E39"/>
      <stop offset="1" stop-color="#242E39" stop-opacity="0"/>
    </linearGradient>
    <linearGradient id="d" x1="343" x2="487.5" y1="316.056" y2="496.056" gradientUnits="userSpaceOnUse">
      <stop offset="0" stop-color="#242E39"/>
      <stop offset="1" stop-color="#242E39" stop-opacity="0"/>
    </linearGradient>
    <linearGradient id="e" x1="551" x2="695.5" y1="143.056" y2="323.056" gradientUnits="userSpaceOnUse">
      <stop offset="0" stop-color="#242E39"/>
      <stop offset="1" stop-color="#242E39" stop-opacity="0"/>
    </linearGradient>
    <linearGradient id="f" x1="528.016" x2="672.516" y1="436.112" y2="616.112" gradientUnits="userSpaceOnUse">
      <stop offset="0" stop-color="#242E39"/>
      <stop offset="1" stop-color="#242E39" stop-opacity="0"/>
    </linearGradient>
    <linearGradient id="g" x1="282.016" x2="426.516" y1="624.056" y2="804.056" gradientUnits="userSpaceOnUse">
      <stop offset="0" stop-color="#242E39"/>
      <stop offset="1" stop-color="#242E39" stop-opacity="0"/>
    </linearGradient>
    <linearGradient id="h" x1="841.016" x2="985.516" y1="86.112" y2="266.112" gradientUnits="userSpaceOnUse">
      <stop offset="0" stop-color="#242E39"/>
      <stop offset="1" stop-color="#242E39" stop-opacity="0"/>
    </linearGradient>
    <linearGradient id="i" x1="772.016" x2="916.516" y1="651.112" y2="831.112" gradientUnits="userSpaceOnUse">
      <stop offset="0" stop-color="#242E39"/>
      <stop offset="1" stop-color="#242E39" stop-opacity="0"/>
    </linearGradient>
  </defs>
</svg>
