<svg xmlns="http://www.w3.org/2000/svg" viewBox="0 0 274.54 198.09"><path d="M137.31,0A66.37,66.37,0,0,0,71,66.29V131.8a66.29,66.29,0,1,0,132.57,0V66.29A66.3,66.3,0,0,0,137.31,0ZM80,66.29A57.35,57.35,0,0,1,132.81,9.18v18a9.86,9.86,0,0,0-8.23,9.72V63.25A9.88,9.88,0,0,0,132.81,73v6.19A179.5,179.5,0,0,1,80,68.71ZM194.59,131.8A57.29,57.29,0,1,1,80,131.8V78.25a189.2,189.2,0,0,0,57.16,10.08h.13c1.36,0,2.72,0,4.08,0a190.1,190.1,0,0,0,53.2-7.55Zm0-60.37a180.58,180.58,0,0,1-52.78,7.95V73A9.88,9.88,0,0,0,150,63.25V36.87a9.87,9.87,0,0,0-8.22-9.72v-18a57.29,57.29,0,0,1,52.78,57.11Z"/><path d="M49.59,58.16a4.52,4.52,0,0,0-4.77.54L1.68,93.33a4.51,4.51,0,0,0,0,7L44.82,135a4.55,4.55,0,0,0,2.82,1,4.49,4.49,0,0,0,4.5-4.5V62.21A4.48,4.48,0,0,0,49.59,58.16Zm-6.45,63.92L11.69,96.84,43.14,71.59Z"/><path d="M272.86,93.33,229.72,58.7a4.51,4.51,0,0,0-7.32,3.51v69.25a4.49,4.49,0,0,0,4.5,4.5,4.55,4.55,0,0,0,2.82-1l43.14-34.62a4.51,4.51,0,0,0,0-7ZM231.4,122.08V71.59l31.45,25.25Z"/></svg>