<svg xmlns="http://www.w3.org/2000/svg" fill="none" viewBox="0 0 241 93">
  <g clip-path="url(#a)">
    <path fill="#FF0" d="M38.1 10.9h-11L31.5.7c.4-.9 1.7-.9 2.1 0l4.5 10.2Zm6.6 15.5H20.4l3.3-7.6h17.8l3.2 7.6Zm6.7 15.4H13.7l3.3-7.5h31.2l3.2 7.5Zm12.2 15.4v3.5c0 .6-.5 1.2-1.2 1.2H2.7c-.6 0-1.2-.5-1.2-1.2v-3.5c0-.7.5-1.2 1.2-1.2h4.2c.5 0 .9-.3 1-.7l2.4-5.6h44.5l2.4 5.6c.2.4.6.7 1.1.7h4.2c.6 0 1.1.5 1.1 1.2ZM40.3 69.9h14.6L39 92.6H24.3l16-22.7Zm32.2 0h14.7l-16 22.7H56.5l16-22.7Zm46.9 0-15.9 22.7H88.8l15.9-22.7h14.7Zm17.6 0h14.7l-16 22.7H121l16-22.7Zm32.2 0h14.7L168 92.6h-14.7l15.9-22.7Zm32.3 0h14.6l-15.9 22.7h-14.7l16-22.7ZM0 92.6V69.9h22.6L6.7 92.6H0Zm240.4-22.7v22.7h-22.6l15.9-22.7h6.7ZM74.5 18.6v12c0 1.4.4 2.5 1.1 3.2.7.7 1.8 1.1 3.1 1.1s2.4-.4 3.1-1.1c.7-.7 1.1-1.8 1.1-3.2v-12H86v11.9c0 1.5-.3 2.8-1 3.9s-1.6 1.9-2.7 2.4-2.3.8-3.7.8c-1.4 0-2.6-.3-3.7-.8s-2-1.3-2.6-2.4c-.6-1.1-1-2.4-1-3.9V18.6h3.2Zm26.3 4.4c.9.5 1.7 1.2 2.2 2.2.5 1 .8 2.1.8 3.5v8.8h-3.1V29c0-1.3-.3-2.4-1-3.1-.7-.7-1.6-1.1-2.7-1.1-1.2 0-2.1.4-2.7 1.1-.6.7-1 1.7-1 3.1v8.3h-3.1V22.5h3.1v1.7c.5-.6 1.1-1.1 1.9-1.4.8-.3 1.6-.5 2.5-.5 1.1-.1 2.1.2 3.1.7Zm6.7 2.9c.6-1.2 1.5-2 2.5-2.7 1.1-.6 2.3-1 3.6-1 1 0 1.9.2 2.9.6.9.4 1.7 1 2.3 1.7v-7.2h3.1v20h-3.1v-2.2c-.5.7-1.2 1.3-2.1 1.8-.9.5-1.9.7-3.1.7-1.3 0-2.5-.3-3.5-1-1.1-.7-1.9-1.6-2.5-2.8-.6-1.2-.9-2.5-.9-4s.2-2.8.8-3.9Zm10.7 1.3c-.4-.8-1-1.3-1.7-1.7-.7-.4-1.4-.6-2.2-.6-.8 0-1.5.2-2.2.6-.7.4-1.2 1-1.7 1.7-.4.7-.6 1.6-.6 2.7 0 1 .2 1.9.6 2.7.4.8 1 1.4 1.7 1.8.7.4 1.4.6 2.2.6.8 0 1.5-.2 2.2-.6.7-.4 1.2-1 1.7-1.7.4-.8.6-1.7.6-2.7 0-1.1-.2-2-.6-2.8Zm21.3 3.9h-11.4c.1 1.2.5 2.1 1.3 2.9.8.7 1.8 1.1 2.9 1.1 1.7 0 2.8-.7 3.5-2.1h3.3c-.5 1.4-1.3 2.5-2.4 3.4-1.1.9-2.6 1.3-4.4 1.3-1.4 0-2.7-.3-3.8-1-1.1-.6-2-1.5-2.6-2.7-.6-1.2-1-2.5-1-4s.3-2.9.9-4c.6-1.2 1.5-2.1 2.6-2.7 1.1-.6 2.4-.9 3.9-.9 1.4 0 2.7.3 3.8.9 1.1.6 2 1.5 2.6 2.6.6 1.1.9 2.4.9 3.8 0 .4-.1.9-.1 1.4Zm-3.1-2.5c0-1.1-.4-2-1.2-2.7-.8-.7-1.8-1-2.9-1-1.1 0-2 .3-2.7 1-.8.7-1.2 1.6-1.3 2.7h8.1Zm11.1-5.7c.7-.4 1.6-.6 2.7-.6v3.2h-.8c-1.2 0-2.1.3-2.7.9-.6.6-.9 1.7-.9 3.2v7.8h-3.1V22.5h3.1v2.2c.3-.8.9-1.4 1.7-1.8Zm-76.1 27c.6-1.2 1.5-2.1 2.6-2.7 1.1-.6 2.4-.9 3.8-.9 1.8 0 3.3.4 4.5 1.3 1.2.9 2 2.1 2.4 3.7h-3.3c-.3-.7-.7-1.3-1.3-1.7-.6-.4-1.3-.6-2.2-.6-1.3 0-2.3.4-3 1.3-.7.9-1.1 2.1-1.1 3.7s.4 2.9 1.1 3.8c.7.9 1.8 1.3 3 1.3 1.8 0 3-.8 3.5-2.3h3.3c-.4 1.5-1.2 2.7-2.4 3.6-1.2.9-2.7 1.3-4.4 1.3-1.4 0-2.7-.3-3.8-1-1.1-.6-2-1.5-2.6-2.7-.6-1.2-.9-2.5-.9-4s.2-3 .8-4.1Zm18.9 10.8c-1.1-.6-2-1.5-2.7-2.7-.7-1.2-1-2.5-1-4s.3-2.9 1-4c.7-1.2 1.6-2.1 2.7-2.7 1.2-.6 2.4-.9 3.9-.9 1.4 0 2.7.3 3.9.9 1.2.6 2.1 1.5 2.7 2.7.7 1.2 1 2.5 1 4s-.3 2.9-1 4c-.7 1.2-1.6 2.1-2.8 2.7-1.2.6-2.5 1-3.9 1-1.4-.1-2.6-.4-3.8-1Zm6.1-2.3c.7-.4 1.3-.9 1.7-1.7.4-.8.6-1.7.6-2.8 0-1.1-.2-2-.6-2.7-.4-.7-1-1.3-1.6-1.7-.7-.4-1.4-.6-2.2-.6-.8 0-1.5.2-2.2.6-.7.4-1.2.9-1.6 1.7-.4.7-.6 1.7-.6 2.7 0 1.6.4 2.8 1.2 3.7.8.9 1.8 1.3 3.1 1.3.7 0 1.5-.2 2.2-.5ZM115.6 47c.9.5 1.7 1.2 2.2 2.2.5 1 .8 2.1.8 3.5v8.8h-3.1V53c0-1.3-.3-2.4-1-3.1-.7-.7-1.6-1.1-2.7-1.1-1.2 0-2.1.4-2.7 1.1-.6.7-1 1.7-1 3.1v8.3H105V46.5h3.1v1.7c.5-.6 1.1-1.1 1.9-1.4.8-.3 1.6-.5 2.5-.5 1.1-.1 2.1.2 3.1.7Zm9.1 14c-.9-.4-1.7-1-2.2-1.7-.5-.7-.8-1.5-.9-2.4h3.2c.1.6.4 1.2.9 1.6.5.4 1.2.6 2.1.6.9 0 1.5-.2 2-.5s.7-.8.7-1.3c0-.6-.3-1-.8-1.2-.5-.3-1.4-.6-2.5-.9-1.1-.3-2-.6-2.7-.9-.7-.3-1.3-.7-1.8-1.3-.5-.6-.8-1.4-.8-2.3 0-.8.2-1.5.7-2.2.5-.7 1.1-1.2 2-1.6.9-.4 1.9-.6 3-.6 1.7 0 3.1.4 4.1 1.3 1 .9 1.6 2 1.7 3.5h-3.1c-.1-.7-.3-1.2-.8-1.6-.5-.4-1.1-.6-2-.6-.8 0-1.4.2-1.9.5-.4.3-.6.7-.6 1.2 0 .4.1.7.4 1 .3.3.6.5 1.1.6.4.2 1 .3 1.8.6 1.1.3 2 .6 2.7.9.7.3 1.3.7 1.8 1.3.5.6.8 1.3.8 2.3 0 .8-.2 1.6-.7 2.3-.5.7-1.1 1.2-2 1.6-.9.4-1.9.6-3 .6-1.2-.2-2.3-.4-3.2-.8Zm15.7-12v8.2c0 .6.1 1 .4 1.2.3.2.7.4 1.3.4h1.9v2.6h-2.4c-1.4 0-2.4-.3-3.2-1-.7-.6-1.1-1.7-1.1-3.2V49h-1.8v-2.5h1.8v-3.7h3.1v3.7h3.6V49h-3.6Zm11.4-2.1c.7-.4 1.6-.6 2.7-.6v3.2h-.8c-1.2 0-2.1.3-2.7.9-.6.6-.9 1.7-.9 3.2v7.8H147V46.5h3.1v2.2c.3-.8.9-1.4 1.7-1.8Zm18.9-.4v14.9h-3.1v-1.8c-.5.6-1.1 1.1-1.9 1.4-.8.4-1.6.5-2.5.5-1.2 0-2.2-.2-3.1-.7-.9-.5-1.7-1.2-2.2-2.2-.5-1-.8-2.1-.8-3.5v-8.7h3.1v8.3c0 1.3.3 2.4 1 3.1.7.7 1.6 1.1 2.7 1.1 1.2 0 2.1-.4 2.7-1.1.6-.7 1-1.7 1-3.1v-8.3h3.1v.1Zm4 3.4c.6-1.2 1.5-2.1 2.6-2.7 1.1-.6 2.4-.9 3.8-.9 1.8 0 3.3.4 4.5 1.3 1.2.9 2 2.1 2.4 3.7h-3.3c-.3-.7-.7-1.3-1.3-1.7-.6-.4-1.3-.6-2.2-.6-1.3 0-2.3.4-3 1.3-.7.9-1.1 2.1-1.1 3.7s.4 2.9 1.1 3.8c.7.9 1.8 1.3 3 1.3 1.8 0 3-.8 3.5-2.3h3.3c-.4 1.5-1.2 2.7-2.4 3.6-1.2.9-2.7 1.3-4.4 1.3-1.4 0-2.7-.3-3.8-1-1.1-.6-2-1.5-2.6-2.7-.6-1.2-.9-2.5-.9-4s.2-3 .8-4.1Zm19.9-.9v8.2c0 .6.1 1 .4 1.2.3.2.7.4 1.3.4h1.9v2.6h-2.4c-1.4 0-2.4-.3-3.2-1-.7-.6-1.1-1.7-1.1-3.2V49h-1.8v-2.5h1.8v-3.7h3.1v3.7h3.6V49h-3.6Zm6.6-5c-.4-.4-.6-.8-.6-1.4 0-.6.2-1 .6-1.4.4-.4.8-.6 1.4-.6.5 0 1 .2 1.4.6.4.4.6.8.6 1.4 0 .6-.2 1-.6 1.4-.4.4-.8.6-1.4.6-.6-.1-1-.3-1.4-.6Zm2.9 2.5v14.9H201V46.5h3.1Zm6.7 14.2c-1.1-.6-2-1.5-2.7-2.7-.7-1.2-1-2.5-1-4s.3-2.9 1-4c.7-1.2 1.6-2.1 2.7-2.7 1.2-.6 2.4-.9 3.9-.9 1.4 0 2.7.3 3.9.9 1.2.6 2.1 1.5 2.7 2.7.7 1.2 1 2.5 1 4s-.3 2.9-1 4c-.7 1.2-1.6 2.1-2.8 2.7-1.2.6-2.5 1-3.9 1-1.4-.1-2.7-.4-3.8-1Zm6-2.3c.7-.4 1.3-.9 1.7-1.7.4-.8.6-1.7.6-2.8 0-1.1-.2-2-.6-2.7-.4-.7-1-1.3-1.6-1.7-.7-.4-1.4-.6-2.2-.6-.8 0-1.5.2-2.2.6-.7.4-1.2.9-1.6 1.7-.4.7-.6 1.7-.6 2.7 0 1.6.4 2.8 1.2 3.7.8.9 1.8 1.3 3.1 1.3.8 0 1.5-.2 2.2-.5ZM236 47c.9.5 1.7 1.2 2.2 2.2.5 1 .8 2.1.8 3.5v8.8h-3.1V53c0-1.3-.3-2.4-1-3.1-.7-.7-1.6-1.1-2.7-1.1-1.2 0-2.1.4-2.7 1.1-.6.7-1 1.7-1 3.1v8.3h-3.1V46.5h3.1v1.7c.5-.6 1.1-1.1 1.9-1.4.8-.3 1.6-.5 2.5-.5 1.2-.1 2.2.2 3.1.7Z"/>
    <path fill="#000" d="m233.7 69.9-15.9 22.7h-17.6l15.9-22.7h17.6Zm-32.2 0-16 22.7H168l15.9-22.7h17.6Zm-32.3 0-15.9 22.7h-17.6l16-22.7h17.5Zm-32.2 0-16 22.7h-17.5l15.9-22.7H137Zm-32.3 0L88.8 92.6H71.2l16-22.7h17.5Zm-32.2 0-16 22.7H39l15.9-22.7h17.6Zm-32.2 0-16 22.7H6.7l16-22.7h17.6Zm14.5-20.2H10.3l3.4-7.9h37.7l3.4 7.9Zm-6.6-15.4H17l3.4-7.9h24.3l3.5 7.9Zm-6.7-15.5H23.7l3.4-7.9h11l3.4 7.9Z"/>
  </g>
  <defs>
    <clipPath id="a">
      <path fill="#fff" d="M0 0h240.4v92.6H0z"/>
    </clipPath>
  </defs>
</svg>
