<svg xmlns="http://www.w3.org/2000/svg" width="240" height="45" fill="none" viewBox="0 0 240 45">
  <path fill="#fff" d="M51.636 12.155c-.103-1.041-.547-1.85-1.33-2.428-.784-.577-1.847-.865-3.19-.865-.913 0-1.684.129-2.313.387-.628.25-1.11.599-1.446 1.046a2.52 2.52 0 0 0-.49 1.525c-.018.473.08.886.296 1.24.224.353.53.658.917.917.388.25.836.469 1.343.658.508.181 1.051.336 1.628.465l2.377.569c1.153.258 2.213.602 3.177 1.033.964.43 1.8.96 2.506 1.589a6.601 6.601 0 0 1 1.64 2.221c.396.853.598 1.83.607 2.932-.009 1.619-.422 3.022-1.24 4.21-.81 1.18-1.98 2.097-3.513 2.752-1.524.646-3.363.969-5.515.969-2.136 0-3.996-.328-5.58-.982-1.576-.655-2.807-1.623-3.694-2.906-.878-1.292-1.339-2.89-1.382-4.792h5.412c.06.887.314 1.627.762 2.221.456.586 1.063 1.03 1.821 1.33.766.294 1.632.44 2.596.44.947 0 1.77-.138 2.467-.413.706-.276 1.253-.659 1.64-1.15.388-.49.582-1.055.582-1.692 0-.594-.177-1.093-.53-1.498-.344-.405-.852-.75-1.524-1.033-.663-.284-1.477-.543-2.441-.775l-2.88-.724c-2.23-.542-3.992-1.39-5.283-2.544-1.292-1.154-1.933-2.708-1.925-4.663-.008-1.601.418-3 1.28-4.198.869-1.196 2.061-2.13 3.577-2.802 1.515-.672 3.237-1.008 5.166-1.008 1.963 0 3.677.336 5.14 1.008 1.473.671 2.619 1.606 3.437 2.802.818 1.197 1.24 2.584 1.265 4.16h-5.36Zm14.883 7.376V31h-5.503V4.548h5.348V14.66h.232c.448-1.17 1.171-2.088 2.17-2.751.999-.672 2.252-1.008 3.759-1.008 1.377 0 2.579.302 3.603.905 1.034.594 1.834 1.45 2.403 2.57.577 1.11.86 2.441.852 3.991V31h-5.502V19.35c.008-1.223-.302-2.175-.93-2.855-.62-.68-1.49-1.02-2.61-1.02-.748 0-1.411.16-1.988.478a3.388 3.388 0 0 0-1.343 1.395c-.32.602-.483 1.33-.491 2.183ZM89.37 31.374c-1.266 0-2.394-.22-3.384-.66-.99-.447-1.774-1.106-2.351-1.975-.569-.879-.853-1.972-.853-3.281 0-1.102.203-2.028.607-2.777a4.915 4.915 0 0 1 1.654-1.808 8.018 8.018 0 0 1 2.376-1.034 18.112 18.112 0 0 1 2.816-.49 71.415 71.415 0 0 0 2.79-.336c.706-.112 1.218-.276 1.537-.491.318-.215.478-.534.478-.956v-.077c0-.818-.259-1.451-.775-1.899-.508-.448-1.232-.671-2.17-.671-.99 0-1.778.219-2.364.658-.585.43-.973.973-1.162 1.628l-5.09-.414c.26-1.205.767-2.247 1.525-3.125.758-.887 1.735-1.568 2.932-2.041 1.205-.482 2.6-.723 4.185-.723 1.102 0 2.157.129 3.164.387 1.016.258 1.916.659 2.7 1.201a5.839 5.839 0 0 1 1.872 2.093c.457.844.685 1.855.685 3.035V31h-5.218v-2.751h-.155a5.601 5.601 0 0 1-1.279 1.64c-.534.465-1.175.831-1.924 1.098-.75.258-1.615.388-2.596.388Zm1.575-3.798c.81 0 1.524-.16 2.144-.478a3.797 3.797 0 0 0 1.46-1.317c.353-.551.53-1.175.53-1.873v-2.105a2.946 2.946 0 0 1-.71.31c-.294.086-.625.168-.996.245-.37.069-.74.134-1.11.194l-1.008.142a6.813 6.813 0 0 0-1.692.452c-.482.207-.856.487-1.123.84-.267.344-.4.775-.4 1.291 0 .75.27 1.322.813 1.718.551.388 1.249.581 2.092.581Zm21.176 3.746c-1.507 0-2.871-.388-4.094-1.163-1.214-.783-2.179-1.933-2.893-3.448-.706-1.524-1.059-3.393-1.059-5.606 0-2.273.365-4.163 1.097-5.67.732-1.515 1.705-2.648 2.919-3.397a7.48 7.48 0 0 1 4.017-1.136c1.111 0 2.037.189 2.777.568.749.37 1.352.835 1.809 1.395.465.55.818 1.093 1.059 1.627h.168V4.548h5.489V31h-5.425v-3.177h-.232a7.134 7.134 0 0 1-1.098 1.64c-.465.534-1.072.977-1.821 1.33-.741.353-1.645.53-2.713.53Zm1.744-4.379c.887 0 1.636-.24 2.247-.723.62-.49 1.094-1.175 1.421-2.054.336-.878.504-1.907.504-3.087 0-1.18-.164-2.204-.491-3.074-.327-.87-.801-1.54-1.421-2.014-.62-.474-1.373-.71-2.26-.71-.904 0-1.666.245-2.286.735-.62.491-1.089 1.171-1.408 2.041-.319.87-.478 1.877-.478 3.022 0 1.154.159 2.175.478 3.062.327.878.796 1.567 1.408 2.066.62.49 1.382.736 2.286.736Zm23.11 4.444c-2.041 0-3.797-.414-5.27-1.24-1.464-.836-2.592-2.015-3.384-3.54-.792-1.532-1.188-3.345-1.188-5.437 0-2.04.396-3.832 1.188-5.373.792-1.542 1.908-2.743 3.346-3.604 1.446-.86 3.142-1.292 5.088-1.292 1.309 0 2.528.212 3.656.633a8.104 8.104 0 0 1 2.97 1.873c.853.835 1.516 1.886 1.99 3.152.473 1.257.71 2.73.71 4.417v1.511H129.33v-3.41h11.573c0-.792-.173-1.494-.517-2.105a3.702 3.702 0 0 0-1.434-1.434c-.603-.353-1.304-.53-2.105-.53-.835 0-1.576.195-2.222.582a4.079 4.079 0 0 0-1.498 1.537 4.33 4.33 0 0 0-.555 2.131V22.5c0 .982.18 1.83.542 2.545.37.714.891 1.265 1.563 1.653.672.387 1.468.581 2.389.581.612 0 1.172-.086 1.68-.258.508-.172.942-.43 1.304-.775.362-.345.637-.767.827-1.266l5.089.336a6.954 6.954 0 0 1-1.589 3.203c-.792.904-1.817 1.61-3.074 2.118-1.249.5-2.691.75-4.327.75ZM149.673 31V11.16h5.334v3.462h.207c.361-1.231.968-2.16 1.821-2.79.852-.637 1.834-.955 2.945-.955.275 0 .572.017.891.051.318.035.598.082.839.142v4.883a7.167 7.167 0 0 0-1.072-.207 9.622 9.622 0 0 0-1.253-.09c-.809 0-1.532.176-2.169.53a3.904 3.904 0 0 0-1.499 1.446c-.361.62-.542 1.334-.542 2.144V31h-5.502Z"/>
  <path fill="#FF0651" d="M173.519 31.387c-2.032 0-3.78-.43-5.244-1.291-1.455-.87-2.575-2.075-3.358-3.617-.775-1.541-1.163-3.315-1.163-5.321 0-2.032.392-3.815 1.176-5.347.792-1.542 1.916-2.743 3.371-3.604 1.455-.87 3.186-1.305 5.192-1.305 1.731 0 3.246.315 4.547.943 1.3.629 2.329 1.512 3.087 2.648.757 1.137 1.175 2.472 1.252 4.004h-5.192c-.146-.99-.534-1.787-1.162-2.39-.62-.61-1.434-.916-2.441-.916-.853 0-1.598.232-2.235.697-.629.457-1.119 1.124-1.472 2.002-.353.878-.53 1.942-.53 3.19 0 1.266.172 2.343.517 3.23.353.886.848 1.562 1.485 2.027.637.465 1.382.698 2.235.698.628 0 1.192-.13 1.692-.388a3.264 3.264 0 0 0 1.252-1.123c.336-.5.556-1.098.659-1.796h5.192c-.086 1.516-.499 2.85-1.24 4.004-.731 1.146-1.743 2.041-3.035 2.687-1.291.646-2.82.968-4.585.968Zm17.886-26.84V31h-5.503V4.548h5.503Zm17.129 18.006V11.16h5.503V31h-5.283v-3.604h-.207a5.852 5.852 0 0 1-2.234 2.803c-1.033.706-2.295 1.06-3.784 1.06-1.327 0-2.493-.302-3.501-.905-1.007-.603-1.795-1.46-2.363-2.57-.56-1.11-.844-2.441-.853-3.991V11.16h5.502v11.65c.009 1.171.323 2.097.943 2.777.62.68 1.451 1.02 2.493 1.02a3.96 3.96 0 0 0 1.86-.451 3.549 3.549 0 0 0 1.395-1.37c.362-.602.538-1.347.529-2.234ZM218.541 31V4.548h5.502v9.945h.168a7.294 7.294 0 0 1 1.047-1.627c.465-.56 1.067-1.025 1.808-1.395.749-.379 1.679-.569 2.79-.569 1.446 0 2.781.38 4.004 1.137 1.222.75 2.2 1.882 2.932 3.397.732 1.507 1.098 3.397 1.098 5.67 0 2.213-.358 4.082-1.072 5.606-.707 1.515-1.671 2.665-2.894 3.448-1.214.775-2.574 1.163-4.081 1.163-1.068 0-1.976-.177-2.725-.53-.741-.353-1.348-.796-1.822-1.33a6.783 6.783 0 0 1-1.085-1.64h-.245V31h-5.425Zm5.386-9.92c0 1.18.164 2.21.491 3.087.327.879.801 1.563 1.421 2.054.62.482 1.373.723 2.26.723.896 0 1.653-.245 2.273-.736.62-.5 1.09-1.188 1.408-2.066.327-.887.491-1.908.491-3.062 0-1.145-.159-2.152-.478-3.022-.318-.87-.788-1.55-1.408-2.04-.62-.492-1.382-.737-2.286-.737-.895 0-1.653.237-2.273.71-.611.474-1.081 1.146-1.408 2.015-.327.87-.491 1.895-.491 3.074Z"/>
  <path fill="#fff" d="M7.966 33.096H0v-7.614h7.966v7.614Zm11.758 11.241H11.76v-7.615h7.965v7.615Z"/>
  <path fill="#FF0650" d="M19.724 21.855H11.76v-7.614h7.965v7.614Z"/>
  <path fill="#fff" d="M19.724 33.096H11.76v-7.614h7.965v7.614Z"/>
  <path fill="#FF0650" d="M31.483 44.337h-7.965v-7.615h7.965v7.615Zm0-22.482h-7.965v-7.614h7.965v7.614Z"/>
  <path fill="#fff" d="M31.483 33.096h-7.965v-7.614h7.965v7.614Zm0-22.481h-7.965V3h7.965v7.615Zm11.759 33.722h-7.966v-7.615h7.966v7.615Z"/>
  <path fill="#FF0651" d="M55 44.337h-7.966v-7.615H55v7.615Z"/>
  <path fill="#fff" d="M66.966 44.337H59v-7.615h7.966v7.615Z"/>
</svg>
